<svg fill="none" height="491" viewBox="0 0 1639 491" width="1639" xmlns="http://www.w3.org/2000/svg" xmlns:xlink="http://www.w3.org/1999/xlink"><filter id="a" color-interpolation-filters="sRGB" filterUnits="userSpaceOnUse" height="49.2827" width="49.2826" x="1205.98" y="239.707"><feFlood flood-opacity="0" result="BackgroundImageFix"/><feColorMatrix in="SourceAlpha" result="hardAlpha" type="matrix" values="0 0 0 0 0 0 0 0 0 0 0 0 0 0 0 0 0 0 127 0"/><feOffset dx="3" dy="3"/><feGaussianBlur stdDeviation="5"/><feComposite in2="hardAlpha" operator="out"/><feColorMatrix type="matrix" values="0 0 0 0 0.443137 0 0 0 0 0.501961 0 0 0 0 0.588235 0 0 0 0.4 0"/><feBlend in2="BackgroundImageFix" mode="normal" result="effect1_dropShadow_1792_21629"/><feBlend in="SourceGraphic" in2="effect1_dropShadow_1792_21629" mode="normal" result="shape"/></filter><filter id="b" color-interpolation-filters="sRGB" filterUnits="userSpaceOnUse" height="49.2827" width="49.2827" x="1401.52" y="268.99"><feFlood flood-opacity="0" result="BackgroundImageFix"/><feColorMatrix in="SourceAlpha" result="hardAlpha" type="matrix" values="0 0 0 0 0 0 0 0 0 0 0 0 0 0 0 0 0 0 127 0"/><feOffset dx="3" dy="3"/><feGaussianBlur stdDeviation="5"/><feComposite in2="hardAlpha" operator="out"/><feColorMatrix type="matrix" values="0 0 0 0 0.443137 0 0 0 0 0.501961 0 0 0 0 0.588235 0 0 0 0.4 0"/><feBlend in2="BackgroundImageFix" mode="normal" result="effect1_dropShadow_1792_21629"/><feBlend in="SourceGraphic" in2="effect1_dropShadow_1792_21629" mode="normal" result="shape"/></filter><filter id="c" color-interpolation-filters="sRGB" filterUnits="userSpaceOnUse" height="49.2827" width="49.2826" x="820.586" y="76.291"><feFlood flood-opacity="0" result="BackgroundImageFix"/><feColorMatrix in="SourceAlpha" result="hardAlpha" type="matrix" values="0 0 0 0 0 0 0 0 0 0 0 0 0 0 0 0 0 0 127 0"/><feOffset dx="3" dy="3"/><feGaussianBlur stdDeviation="5"/><feComposite in2="hardAlpha" operator="out"/><feColorMatrix type="matrix" values="0 0 0 0 0.443137 0 0 0 0 0.501961 0 0 0 0 0.588235 0 0 0 0.4 0"/><feBlend in2="BackgroundImageFix" mode="normal" result="effect1_dropShadow_1792_21629"/><feBlend in="SourceGraphic" in2="effect1_dropShadow_1792_21629" mode="normal" result="shape"/></filter><radialGradient id="d" cx="0" cy="0" gradientTransform="matrix(13.32032322 79.07422112 -79.07422112 13.32032322 842 98)" gradientUnits="userSpaceOnUse" r="1"><stop offset="0" stop-color="#59f941"/><stop offset=".552083" stop-color="#59f941" stop-opacity="0"/></radialGradient><clipPath id="e"><path d="m869.148 56.7754h125.632v30.8501h-125.632z"/></clipPath><path d="m1583.26 301.022c-282.95 7.94-735.551-111.685-836.072-298.022" stroke="#a4afc1" stroke-linecap="round" stroke-width="5"/><circle cx="842" cy="98" fill="url(#d)" fill-opacity=".5" r="62"/><path d="m642.445 97.4606 4.854 2.1667c30.453 13.5947 65.362 13.0107 95.344-1.5951 28.534-13.9015 61.607-15.1317 91.095-3.3885l7.074 2.8169v356.1144h-198.367z" fill="#a9deb8" fill-opacity=".4"/><path d="m841.758 39.8398v413.7352" stroke="#a9deb8" stroke-linecap="round" stroke-linejoin="round" stroke-width="4"/><path d="m1227.16 39.8398v413.7352" stroke="#b6c0ce" stroke-linecap="round" stroke-linejoin="round" stroke-width="4"/><path d="m1422.69 39.8398v413.7352" stroke="#b6c0ce" stroke-linecap="round" stroke-linejoin="round" stroke-width="4"/><g fill="#718096"><path d="m615 421.892v4.79h-12.683v-4.808c0-2.171 1.266-3.639 3.164-3.639 1.319 0 2.549.967 2.769 2.189h.07c.22-1.723 1.433-2.83 3.12-2.83 2.233 0 3.56 1.599 3.56 4.298zm-11.285 3.208h4.069v-2.373c0-1.873-.747-2.892-2.118-2.892-1.257 0-1.951.861-1.951 2.399zm9.888 0v-2.971c0-1.907-.774-2.909-2.242-2.909-1.467 0-2.215 1.037-2.215 3.058v2.822zm-6.575-13.903c0 1.433 1.099 2.435 2.619 2.532v-4.966c-1.529.035-2.619.993-2.619 2.434zm5.353-2.399v-1.503c1.599.264 2.777 1.81 2.777 3.806 0 2.619-1.819 4.21-4.693 4.21-2.839 0-4.764-1.618-4.764-4.14 0-2.47 1.793-3.99 4.562-3.99h.58v6.556h.088c1.749 0 2.9-1.028 2.9-2.672 0-1.16-.589-2.012-1.45-2.267zm-6.68-8.761c0-2.329 1.863-3.911 4.729-3.911 2.865 0 4.728 1.573 4.728 3.876 0 1.31-.641 2.364-1.643 2.909v.035h4.535v1.53h-12.191v-1.451h1.547v-.035c-1.028-.562-1.705-1.626-1.705-2.953zm8.112.299c0-1.626-1.309-2.646-3.383-2.646-2.066 0-3.384 1.02-3.384 2.646 0 1.564 1.353 2.619 3.384 2.619 2.039 0 3.383-1.055 3.383-2.619zm1.345-10.703c0 2.531-1.819 4.236-4.728 4.236-2.918 0-4.729-1.705-4.729-4.236 0-2.523 1.811-4.228 4.729-4.228 2.909 0 4.728 1.705 4.728 4.228zm-1.345 0c0-1.617-1.23-2.672-3.383-2.672-2.154 0-3.384 1.055-3.384 2.672s1.23 2.68 3.384 2.68c2.153 0 3.383-1.063 3.383-2.68zm-3.322-10.123v-1.749h-3.375v1.749c0 1.186.651 1.942 1.749 1.942.949 0 1.626-.765 1.626-1.942zm4.509-1.749h-3.252v1.617l3.252 2.32v1.749l-3.533-2.549c-.369 1.292-1.319 2.075-2.575 2.075-1.881 0-3.033-1.354-3.033-3.454v-3.27h9.141zm-9.141-11.354h1.257v2.953h7.884v1.512h-7.884v2.953h-1.257zm9.141-8.435h-4.113v4.508h4.113v1.512h-9.141v-1.512h3.771v-4.508h-3.771v-1.512h9.141zm.158-8.462c0 2.531-1.819 4.236-4.728 4.236-2.918 0-4.729-1.705-4.729-4.236 0-2.523 1.811-4.228 4.729-4.228 2.909 0 4.728 1.705 4.728 4.228zm-1.345 0c0-1.617-1.23-2.672-3.383-2.672-2.154 0-3.384 1.055-3.384 2.672s1.23 2.68 3.384 2.68c2.153 0 3.383-1.063 3.383-2.68zm-5.141-14.491v1.511c-.879.264-1.626 1.011-1.626 2.303 0 1.591 1.345 2.637 3.384 2.637 2.091 0 3.383-1.064 3.383-2.655 0-1.212-.597-2.012-1.608-2.302v-1.512c1.732.299 2.953 1.767 2.953 3.823 0 2.54-1.819 4.201-4.728 4.201-2.848 0-4.729-1.652-4.729-4.183 0-2.206 1.415-3.551 2.971-3.823zm-2.813-9.122h1.257v2.954h7.884v1.511h-7.884v2.953h-1.257zm4.175-5.631v1.705h3.709v-1.705c0-1.187-.738-1.952-1.854-1.952-1.125 0-1.855.774-1.855 1.952zm4.966 3.216h-9.141v-1.511h2.918v-1.732c0-2.092 1.204-3.436 3.112-3.436 1.907 0 3.111 1.344 3.111 3.436zm-6.328-21.608v1.512c-.879.263-1.626 1.01-1.626 2.302 0 1.591 1.345 2.637 3.384 2.637 2.091 0 3.383-1.063 3.383-2.654 0-1.213-.597-2.013-1.608-2.303v-1.512c1.732.299 2.953 1.767 2.953 3.824 0 2.54-1.819 4.201-4.728 4.201-2.848 0-4.729-1.652-4.729-4.184 0-2.206 1.415-3.551 2.971-3.823zm6.328-8.541h-7.884v4.421h7.884v1.512h-9.141v-7.454h9.141zm-1.143-7.688c0-1.442-1.01-2.549-2.329-2.549h-.747l.15 2.443c.079 1.231.624 1.934 1.485 1.934.87 0 1.441-.73 1.441-1.828zm1.301.342c0 1.82-1.098 3.041-2.742 3.041-1.564 0-2.549-1.204-2.672-3.313l-.149-2.619h-.765c-1.116 0-1.784.738-1.784 2.004 0 1.177.554 1.916 1.45 2.109v1.477c-1.582-.106-2.795-1.459-2.795-3.622 0-2.144 1.16-3.498 2.98-3.498h6.319v1.451h-1.573v.035c1.046.545 1.731 1.705 1.731 2.935zm-6.486-15.097v1.511c-.879.264-1.626 1.011-1.626 2.303 0 1.591 1.345 2.637 3.384 2.637 2.091 0 3.383-1.064 3.383-2.654 0-1.213-.597-2.013-1.608-2.303v-1.512c1.732.299 2.953 1.767 2.953 3.823 0 2.54-1.819 4.201-4.728 4.201-2.848 0-4.729-1.652-4.729-4.183 0-2.206 1.415-3.551 2.971-3.823zm-1.644-6.283c0 1.433 1.099 2.435 2.619 2.532v-4.966c-1.529.035-2.619.993-2.619 2.434zm5.353-2.399v-1.503c1.599.264 2.777 1.811 2.777 3.806 0 2.619-1.819 4.21-4.693 4.21-2.839 0-4.764-1.617-4.764-4.14 0-2.47 1.793-3.99 4.562-3.99h.58v6.556h.088c1.749 0 2.9-1.028 2.9-2.671 0-1.161-.589-2.013-1.45-2.268zm2.619-10.334h-4.113v4.509h4.113v1.512h-9.141v-1.512h3.771v-4.509h-3.771v-1.512h9.141zm0-6.177v1.512h-9.141v-1.512h6.803v-.07l-6.803-4.57v-1.512h9.141v1.512h-6.803v.07zm-4.509-12.584v-1.749h-3.375v1.749c0 1.187.651 1.943 1.749 1.943.949 0 1.626-.765 1.626-1.943zm4.509-1.749h-3.252v1.617l3.252 2.321v1.749l-3.533-2.549c-.369 1.292-1.319 2.074-2.575 2.074-1.881 0-3.033-1.353-3.033-3.454v-3.269h9.141z"/><path d="m648.108 486h-4.79v-12.683h4.808c2.171 0 3.639 1.266 3.639 3.164 0 1.319-.967 2.549-2.189 2.769v.07c1.723.22 2.83 1.433 2.83 3.12 0 2.233-1.599 3.56-4.298 3.56zm-3.208-11.285v4.069h2.373c1.873 0 2.892-.747 2.892-2.118 0-1.257-.861-1.951-2.399-1.951zm0 9.888h2.971c1.907 0 2.909-.774 2.909-2.242 0-1.467-1.037-2.215-3.058-2.215h-2.822zm14.676-7.902c2.329 0 3.911 1.863 3.911 4.729 0 2.865-1.573 4.728-3.876 4.728-1.309 0-2.364-.641-2.909-1.643h-.035v4.535h-1.529v-12.191h1.45v1.547h.035c.563-1.028 1.626-1.705 2.953-1.705zm-.299 8.112c1.626 0 2.646-1.309 2.646-3.383 0-2.066-1.02-3.384-2.646-3.384-1.564 0-2.619 1.353-2.619 3.384 0 2.039 1.055 3.383 2.619 3.383zm10.58-6.785c-1.432 0-2.434 1.099-2.531 2.619h4.966c-.035-1.529-.993-2.619-2.435-2.619zm2.4 5.353h1.503c-.264 1.599-1.811 2.777-3.806 2.777-2.619 0-4.21-1.819-4.21-4.693 0-2.839 1.617-4.764 4.14-4.764 2.47 0 3.99 1.793 3.99 4.562v.58h-6.557v.088c0 1.749 1.029 2.9 2.672 2.9 1.16 0 2.013-.589 2.268-1.45zm5.825 2.619h-1.512v-9.141h1.855l3.252 7.12h.07l3.27-7.12h1.784v9.141h-1.521v-6.486h-.061l-2.953 6.222h-1.169l-2.953-6.222h-.062zm15.15-4.509h1.749v-3.375h-1.749c-1.186 0-1.942.651-1.942 1.749 0 .949.765 1.626 1.942 1.626zm1.749 4.509v-3.252h-1.617l-2.32 3.252h-1.749l2.549-3.533c-1.292-.369-2.074-1.319-2.074-2.575 0-1.881 1.353-3.033 3.454-3.033h3.269v9.141z"/><path d="m1455.04 240h-3.52v-13.98h-7.45v13.98h-3.55v-16.91h14.52zm8.53.27c-3.79 0-6.22-2.438-6.22-6.563 0-4.066 2.46-6.539 6.22-6.539 3.77 0 6.23 2.461 6.23 6.539 0 4.137-2.43 6.563-6.23 6.563zm0-2.614c1.68 0 2.75-1.418 2.75-3.937 0-2.496-1.08-3.938-2.75-3.938-1.66 0-2.75 1.442-2.75 3.938 0 2.519 1.07 3.937 2.75 3.937zm11.56 2.344h-3.35v-12.562h3.35v7.851h.09l4.99-7.851h3.36v12.562h-3.36v-7.945h-.09zm22.21-8.273h-3.2c-.28-1.09-1.1-1.875-2.41-1.875-1.68 0-2.73 1.453-2.73 3.855 0 2.449 1.05 3.879 2.75 3.879 1.27 0 2.12-.691 2.41-1.875h3.19c-.31 2.777-2.45 4.559-5.64 4.559-3.77 0-6.15-2.485-6.15-6.563 0-4.008 2.38-6.539 6.13-6.539 3.23 0 5.32 1.922 5.65 4.559zm8.48 1.523 5.31 6.75h-4.14l-4.24-5.391h-.09v5.391h-3.41v-12.562h3.41v5.05h.09l4.17-5.05h3.92zm12.01 7.02c-3.79 0-6.22-2.438-6.22-6.563 0-4.066 2.46-6.539 6.22-6.539s6.22 2.461 6.22 6.539c0 4.137-2.42 6.563-6.22 6.563zm0-2.614c1.68 0 2.74-1.418 2.74-3.937 0-2.496-1.07-3.938-2.74-3.938-1.66 0-2.75 1.442-2.75 3.938 0 2.519 1.06 3.937 2.75 3.937zm13.58-8.051h-2.02v2.918h1.85c1.25 0 1.93-.527 1.93-1.476 0-.914-.63-1.442-1.76-1.442zm0 4.899h-2.02v3.328h2.18c1.33 0 2.07-.586 2.07-1.676s-.77-1.652-2.23-1.652zm-5.37 5.496v-12.562h6.29c2.61 0 4.18 1.183 4.18 3.164 0 1.347-.98 2.519-2.27 2.718v.094c1.67.199 2.83 1.371 2.83 2.953 0 2.203-1.78 3.633-4.62 3.633zm25.05 0v-12.562h3.41v12.562zm-6.66-6.41h-1.88v3.855h1.88c1.25 0 2.04-.785 2.04-1.933 0-1.149-.81-1.922-2.04-1.922zm-5.29 6.41v-12.562h3.41v3.632h2.45c2.96 0 4.86 1.735 4.86 4.465 0 2.731-1.9 4.465-4.86 4.465zm23.45-10.301c-1.5 0-2.58 1.137-2.7 2.707h5.33c-.07-1.605-1.11-2.707-2.63-2.707zm2.68 6.457h3.14c-.37 2.461-2.62 4.114-5.73 4.114-3.87 0-6.19-2.473-6.19-6.493 0-4.007 2.35-6.609 6.06-6.609 3.66 0 5.97 2.473 5.97 6.293v1.043h-8.66v.211c0 1.793 1.13 3.023 2.88 3.023 1.25 0 2.21-.621 2.53-1.582zm-119.27 28.114c-3.8 0-6.23-2.438-6.23-6.563 0-4.066 2.46-6.539 6.23-6.539 3.76 0 6.22 2.461 6.22 6.539 0 4.137-2.43 6.563-6.22 6.563zm0-2.614c1.67 0 2.74-1.418 2.74-3.937 0-2.496-1.08-3.938-2.74-3.938-1.67 0-2.76 1.442-2.76 3.938 0 2.519 1.07 3.937 2.76 3.937zm18.03-10.218v2.578h-3.74v9.984h-3.41v-9.984h-3.75v-2.578zm9.08-.2c3.19 0 5.15 2.426 5.15 6.481 0 4.043-1.95 6.48-5.09 6.48-1.83 0-3.23-.89-3.9-2.308h-.07v6.211h-3.42v-16.664h3.37v2.191h.07c.68-1.477 2.08-2.391 3.89-2.391zm-1.15 10.207c1.72 0 2.79-1.441 2.79-3.726 0-2.274-1.07-3.739-2.79-3.739-1.67 0-2.77 1.489-2.77 3.739 0 2.273 1.1 3.726 2.77 3.726zm13.47-3.902h2.05v-3.563h-2.05c-1.21 0-1.97.715-1.97 1.829 0 1.007.77 1.734 1.97 1.734zm2.05 6.457v-4.055h-1.37l-2.79 4.055h-3.8l3.31-4.57c-1.71-.539-2.77-1.828-2.77-3.633 0-2.672 1.98-4.359 5.03-4.359h5.73v12.562zm14.22-2.59v-7.406h-3.77l-.28 3.973c-.09 1.335-.35 2.496-.91 3.339v.094zm-6.3 5.848h-3.1v-5.848h.96c.91-.515 1.26-1.957 1.38-3.656l.41-6.316h10.06v9.972h1.86v5.848h-3.12v-3.258h-8.45zm25.06-3.258v-12.562h3.41v12.562zm-6.66-6.41h-1.89v3.855h1.89c1.24 0 2.04-.785 2.04-1.933 0-1.149-.81-1.922-2.04-1.922zm-5.3 6.41v-12.562h3.41v3.632h2.45c2.97 0 4.87 1.735 4.87 4.465 0 2.731-1.9 4.465-4.87 4.465z"/><path d="m1262.43 231h-3.15v-11.414h-.1l-4.59 11.25h-2.23l-4.59-11.25h-.09v11.414h-3.16v-16.91h4.1l4.81 11.988h.09l4.81-11.988h4.1zm10.53 0h-7.48v-16.91h7.36c3.17 0 5.16 1.629 5.16 4.219 0 1.851-1.38 3.398-3.17 3.668v.093c2.29.176 3.98 1.852 3.98 4.09 0 2.977-2.24 4.84-5.85 4.84zm-3.94-14.273v4.394h2.54c1.89 0 2.96-.832 2.96-2.262 0-1.359-.95-2.132-2.6-2.132zm0 11.636h3.04c2.04 0 3.14-.867 3.14-2.484 0-1.582-1.13-2.426-3.22-2.426h-2.96zm16.85-4.453c-.13 1.887-.38 3.188-1.13 4.067v.093h6.9v-11.074h-5.33zm-2.9 7.09v3.34h-3.21v-6.27h1.19c1.18-.808 1.52-2.132 1.66-4.429l.59-9.551h11.98v13.98h2.11v6.27h-3.2v-3.34z"/></g><path d="m642.445 39.8398v413.7352m0 0h987.585m-987.585 0h-640.445" stroke="#9aa7ba" stroke-linecap="round" stroke-linejoin="round" stroke-width="4"/><path d="m641.58 28.1152c.385-.6666 1.347-.6666 1.732 0l6.448 11.169c.385.6667-.096 1.5-.866 1.5h-12.896c-.77 0-1.251-.8333-.866-1.5z" fill="#9aa7ba"/><path d="m1637.5 452.709c.67.385.67 1.347 0 1.732l-11.17 6.448c-.67.385-1.5-.096-1.5-.866v-12.897c0-.769.83-1.25 1.5-.866z" fill="#9aa7ba"/><g filter="url(#a)"><circle cx="1227.63" cy="261.348" fill="#b6c0ce" r="14.6413"/><circle cx="1227.63" cy="261.348" r="12.6413" stroke="#fff" stroke-width="4"/></g><g filter="url(#b)"><circle cx="1423.16" cy="290.632" fill="#b6c0ce" r="14.6413"/><circle cx="1423.16" cy="290.632" r="12.6413" stroke="#fff" stroke-width="4"/></g><rect fill="#fff" height="60.2329" rx="30.1164" stroke="#a9deb8" stroke-width="4" transform="matrix(1 0 0 -1 754.852 481.691)" width="170.751" x="2" y="-2"/><path d="m805.278 462.295v-12.525h-.065l-3.953 2.728v-2.922l4.007-2.782h3.223v15.501zm14.486-4.931h-7.057v-2.739h7.057zm8.901 5.275c-3.33 0-5.726-1.977-5.823-4.781h2.997c.183 1.311 1.343 2.213 2.847 2.213 1.697 0 2.868-1.181 2.868-2.868 0-1.719-1.171-2.922-2.846-2.922-1.171 0-2.181.537-2.718 1.429h-2.901l.763-8.916h9.861v2.578h-7.315l-.354 4.243h.064c.634-1.042 1.869-1.697 3.448-1.697 2.965 0 5.092 2.181 5.092 5.199 0 3.287-2.428 5.522-5.983 5.522zm16.125-.344h-2.944v-11.516h4.061l3.008 7.52h.075l3.008-7.52h4.017v11.516h-2.943v-7.702h-.075l-2.987 7.057h-2.17l-2.975-7.057h-.075zm17.064 0h-3.072v-11.516h3.072v7.198h.086l4.576-7.198h3.072v11.516h-3.072v-7.283h-.086zm18.042 0v-4.716h-4.426v4.716h-3.126v-11.516h3.126v4.426h4.426v-4.426h3.126v11.516z" fill="#139300"/><rect fill="#fff" height="60.2329" rx="30.1164" stroke="#b6c0ce" stroke-width="4" transform="matrix(1 0 0 -1 1140.25 481.691)" width="170.751" x="2" y="-2"/><path d="m1187.34 462.295v-12.525h-.06l-3.95 2.728v-2.922l4-2.782h3.23v15.501zm14.49-4.931h-7.06v-2.739h7.06zm2.76-5.908c0-2.933 2.34-5.006 5.72-5.006 3.27 0 5.51 1.891 5.51 4.48 0 1.933-1.29 3.383-3 5.081l-3.78 3.641v.065h7v2.578h-11.27v-2.181l5.84-5.629c1.57-1.568 2.05-2.352 2.05-3.426 0-1.161-1.02-2.084-2.46-2.084-1.5 0-2.61 1.052-2.61 2.481v.054h-3zm29.05 10.839h-3.12v-4.791h-.12c-.63.687-1.63 1.149-2.95 1.149-2.64 0-4.23-1.643-4.23-4.254v-3.62h3.13v3.169c0 1.322.74 2.106 2.01 2.106 1.05 0 1.77-.408 2.16-.913v-4.362h3.12zm7.21-2.084c1.36 0 2.49-.892 2.49-2.138v-.838l-2.43.151c-1.17.086-1.84.612-1.84 1.428 0 .86.71 1.397 1.78 1.397zm-1.03 2.267c-2.2 0-3.86-1.418-3.86-3.492 0-2.094 1.61-3.308 4.48-3.48l2.9-.172v-.763c0-1.074-.75-1.697-1.93-1.697s-1.92.58-2.07 1.429h-2.86c.11-2.235 2.01-3.771 5.07-3.771 2.95 0 4.87 1.526 4.87 3.846v7.917h-3.03v-1.762h-.06c-.65 1.225-2.07 1.945-3.51 1.945zm19.69-7.767h-2.93c-.26-.999-1.01-1.719-2.2-1.719-1.55 0-2.51 1.332-2.51 3.534 0 2.245.96 3.556 2.52 3.556 1.17 0 1.94-.634 2.21-1.719h2.92c-.28 2.546-2.24 4.179-5.16 4.179-3.46 0-5.64-2.277-5.64-6.016 0-3.673 2.18-5.994 5.61-5.994 2.97 0 4.88 1.762 5.18 4.179zm6.7 5.5c1.36 0 2.49-.892 2.49-2.138v-.838l-2.42.151c-1.18.086-1.84.612-1.84 1.428 0 .86.71 1.397 1.77 1.397zm-1.03 2.267c-2.19 0-3.86-1.418-3.86-3.492 0-2.094 1.61-3.308 4.48-3.48l2.9-.172v-.763c0-1.074-.75-1.697-1.93-1.697-1.17 0-1.91.58-2.06 1.429h-2.87c.12-2.235 2.02-3.771 5.07-3.771 2.95 0 4.88 1.526 4.88 3.846v7.917h-3.03v-1.762h-.07c-.64 1.225-2.07 1.945-3.51 1.945z" fill="#718096"/><rect fill="#fff" height="60.2329" rx="30.1164" stroke="#b6c0ce" stroke-width="4" transform="matrix(1 0 0 -1 1335.78 481.691)" width="170.751" x="2" y="-2"/><path d="m1377.77 462.295v-2.761h-7.71v-2.761c1.35-2.578 3.04-5.295 6.22-9.979h4.57v10.141h2.02v2.599h-2.02v2.761zm-4.87-5.35v.086h4.93v-7.938h-.06c-2.26 3.308-3.61 5.425-4.87 7.852zm19.54.419h-7.06v-2.739h7.06zm8.9 5.275c-3.33 0-5.73-1.977-5.82-4.781h2.99c.19 1.311 1.35 2.213 2.85 2.213 1.7 0 2.87-1.181 2.87-2.868 0-1.719-1.17-2.922-2.85-2.922-1.17 0-2.18.537-2.72 1.429h-2.9l.77-8.916h9.86v2.578h-7.32l-.35 4.243h.06c.64-1.042 1.87-1.697 3.45-1.697 2.96 0 5.09 2.181 5.09 5.199 0 3.287-2.43 5.522-5.98 5.522zm23.39-.344h-3.13v-4.791h-.12c-.63.687-1.63 1.149-2.95 1.149-2.63 0-4.22-1.643-4.22-4.254v-3.62h3.12v3.169c0 1.322.74 2.106 2.01 2.106 1.05 0 1.77-.408 2.16-.913v-4.362h3.13zm7.2-2.084c1.36 0 2.49-.892 2.49-2.138v-.838l-2.43.151c-1.17.086-1.83.612-1.83 1.428 0 .86.7 1.397 1.77 1.397zm-1.03 2.267c-2.19 0-3.86-1.418-3.86-3.492 0-2.094 1.61-3.308 4.48-3.48l2.9-.172v-.763c0-1.074-.75-1.697-1.93-1.697-1.17 0-1.92.58-2.07 1.429h-2.86c.11-2.235 2.02-3.771 5.07-3.771 2.95 0 4.87 1.526 4.87 3.846v7.917h-3.03v-1.762h-.06c-.64 1.225-2.07 1.945-3.51 1.945zm19.69-7.767h-2.93c-.26-.999-1.01-1.719-2.2-1.719-1.55 0-2.5 1.332-2.5 3.534 0 2.245.95 3.556 2.51 3.556 1.17 0 1.94-.634 2.21-1.719h2.92c-.28 2.546-2.24 4.179-5.16 4.179-3.46 0-5.64-2.277-5.64-6.016 0-3.673 2.18-5.994 5.62-5.994 2.96 0 4.87 1.762 5.17 4.179zm7.54 7.831c-3.48 0-5.7-2.234-5.7-6.016 0-3.727 2.25-5.994 5.7-5.994s5.7 2.256 5.7 5.994c0 3.792-2.22 6.016-5.7 6.016zm0-2.396c1.54 0 2.51-1.299 2.51-3.609 0-2.288-.99-3.609-2.51-3.609-1.53 0-2.52 1.321-2.52 3.609 0 2.31.97 3.609 2.52 3.609zm12.95-7.379h-1.86v2.674h1.7c1.15 0 1.77-.483 1.77-1.353 0-.838-.58-1.321-1.61-1.321zm0 4.49h-1.86v3.051h2c1.22 0 1.9-.537 1.9-1.537 0-.999-.71-1.514-2.04-1.514zm-4.93 5.038v-11.516h5.77c2.39 0 3.83 1.085 3.83 2.901 0 1.235-.9 2.309-2.08 2.492v.086c1.53.182 2.6 1.257 2.6 2.707 0 2.019-1.63 3.33-4.25 3.33z" fill="#718096"/><g filter="url(#c)"><circle cx="842.227" cy="97.9323" fill="#4cb648" r="14.6413"/><circle cx="842.227" cy="97.9323" r="12.6413" stroke="#fff" stroke-width="4"/></g><g clip-path="url(#e)"><path d="m880.114 67.9162c.324-.4105.571-.8805.727-1.3855.149-.4766.236-.9717.258-1.4721.022-.4819.033-.9525.033-1.4043-.001-.8958-.118-1.7873-.349-2.6505-.206-.8061-.578-1.5562-1.091-2.1988-.492-.6264-1.113-1.1318-1.818-1.4796-.838-.3872-1.75-.575-2.668-.5497-.799-.0152-1.589.1682-2.305.5346-.655.3524-1.254.807-1.775 1.3479-.603.6554-1.055 1.4447-1.319 2.3079-.264.7699-.407 1.5781-.426 2.3945v1.0392h3.738v-.7304c.001-.4188.044-.8364.127-1.2463.063-.3588.201-.6992.404-.9977.167-.2341.382-.4281.629-.5685.297-.1576.629-.2328.963-.2183.368-.0156.733.0701 1.058.2484.262.1567.486.3714.658.6288.172.3053.288.641.342.9902.064.393.096.7911.094 1.1897 0 .3765 0 .8358-.047 1.3328-.019.4281-.12.8479-.298 1.2349-.154.3286-.41.5939-.727.753-.332.1553-.694.2324-1.058.2259h-1.56v3.4638h1.454c.366-.0335.733.0403 1.059.2127.327.1725.6.4367.788.7624.188.3904.294.8178.309 1.2537.044.5572.066 1.1596.066 1.7922.042.8911-.128 1.7793-.495 2.5865-.312.5948-.919.8885-1.857.8885-.352.0141-.702-.0622-1.018-.2221-.252-.1372-.471-.3316-.64-.5685-.169-.2342-.293-.5002-.364-.7831-.073-.2965-.11-.6014-.109-.9074l-.04-1.1295h-3.709v1.1295c.006.8554.144 1.7044.408 2.515.237.7889.65 1.5087 1.207 2.1009.537.5584 1.179.9967 1.887 1.2876.75.3096 1.552.4655 2.359.4593.973.0289 1.939-.1774 2.822-.6024.723-.3658 1.368-.8779 1.898-1.506.532-.672.906-1.4636 1.09-2.3117.22-.9621.327-1.948.32-2.9366 0-.6062 0-1.2161-.032-1.8148-.018-.5635-.104-1.1225-.255-1.6641-.151-.5131-.398-.9904-.727-1.4043-.316-.3929-.712-.7091-1.16-.9262.434-.2659.822-.6043 1.149-1.0015z" fill="#4cb648"/><g fill="#48575e"><path d="m908.344 60.6457h3.923v21.2156h3.737v-21.2156h3.927v-3.6633h-11.587z"/><path d="m928.731 68.1117-3.08-11.1293h-3.956l5.178 16.9424-.28 1.2725c-.124.5762-.315 1.1349-.567 1.6641-.146.3042-.332.5856-.553.8359-.231.2206-.524.3602-.836.399-.342.0633-.689.0973-1.037.1017h-.403v3.8666h.636c.661.0041 1.321-.0475 1.974-.1543.652-.127 1.259-.4311 1.76-.881.684-.578 1.217-1.3251 1.549-2.1724.389-.9835.725-1.9891 1.003-3.012l4.974-18.8625h-3.955z"/><path d="m937.016 81.8613h3.734v-21.4226h3.679v21.4226h3.738v-24.8789h-11.151z"/><path d="m959.057 67.4867h-3.843v-10.5043h-3.737v24.8789h3.737v-10.9184h3.843v10.9184h3.738v-24.8789h-3.738z"/><path d="m970.23 72.0837v-15.1013h-3.738v24.8789h3.698l4.217-15.0711v15.0711h3.738v-24.8789h-3.694z"/><path d="m994.782 56.959-4.469.0226-4.864 10.5042v-10.5042h-3.738v24.8789h3.738v-10.9184h1.592l2.992 10.9184h3.822l-4.156-14.6759z"/><path d="m906.603 64.3654v-1.5662c.007-.829-.139-1.6518-.429-2.4247-.271-.716-.672-1.3716-1.181-1.9314-.521-.5536-1.147-.9881-1.84-1.2753-.693-.2873-1.436-.421-2.181-.3926-.791-.0086-1.575.1423-2.309.4443-.679.2789-1.298.6963-1.818 1.2274-.5.5289-.891 1.1579-1.149 1.8486-.281.7344-.421 1.5181-.415 2.3079v1.4872l3.942 17.733c.594.1545 1.205.2354 1.818.2409.751.0043 1.495-.1587 2.181-.4781.663-.3135 1.263-.7542 1.767-1.2989.499-.5415.899-1.1715 1.182-1.8599.285-.7032.431-1.4586.429-2.2214v-1.6942h-3.738v1.3817c.011.3855-.052.7695-.185 1.1295-.098.261-.246.4981-.437.6965-.194.1676-.417.2953-.658.3765-.215.0715-.439.1096-.665.113-.727 0-1.2-.2108-1.454-.6438-.296-.5108-.442-1.0992-.422-1.6943v-12.5448c-.024-.6787.112-1.3533.396-1.9653.247-.4819.727-.7154 1.527-.7154.269-.0113.536.0455.779.1656s.453.2998.614.5234c.356.4811.543 1.0733.531 1.6792v1.3516z"/></g><path d="m895.695 78.6498-.385-1.7319-4.396-19.9355h-2.985l-5.367 24.8789h3.753l.996-5.2709h4.341l2.407 11.0351h3.614zm-7.719-5.7227 1.487-7.9479 1.506 7.9479z" fill="#4cb648"/></g></svg>