<svg fill="none" height="172" viewBox="0 0 355 172" width="355" xmlns="http://www.w3.org/2000/svg" xmlns:xlink="http://www.w3.org/1999/xlink"><filter id="a" color-interpolation-filters="sRGB" filterUnits="userSpaceOnUse" height="16.742" width="16.7418" x="207.911" y="81.4111"><feFlood flood-opacity="0" result="BackgroundImageFix"/><feColorMatrix in="SourceAlpha" result="hardAlpha" type="matrix" values="0 0 0 0 0 0 0 0 0 0 0 0 0 0 0 0 0 0 127 0"/><feOffset dx="1.01913" dy="1.01913"/><feGaussianBlur stdDeviation="1.69855"/><feComposite in2="hardAlpha" operator="out"/><feColorMatrix type="matrix" values="0 0 0 0 0.443137 0 0 0 0 0.501961 0 0 0 0 0.588235 0 0 0 0.4 0"/><feBlend in2="BackgroundImageFix" mode="normal" result="effect1_dropShadow_1817_26233"/><feBlend in="SourceGraphic" in2="effect1_dropShadow_1817_26233" mode="normal" result="shape"/></filter><filter id="b" color-interpolation-filters="sRGB" filterUnits="userSpaceOnUse" height="16.742" width="16.7418" x="274.325" y="91.3603"><feFlood flood-opacity="0" result="BackgroundImageFix"/><feColorMatrix in="SourceAlpha" result="hardAlpha" type="matrix" values="0 0 0 0 0 0 0 0 0 0 0 0 0 0 0 0 0 0 127 0"/><feOffset dx="1.01913" dy="1.01913"/><feGaussianBlur stdDeviation="1.69855"/><feComposite in2="hardAlpha" operator="out"/><feColorMatrix type="matrix" values="0 0 0 0 0.443137 0 0 0 0 0.501961 0 0 0 0 0.588235 0 0 0 0.4 0"/><feBlend in2="BackgroundImageFix" mode="normal" result="effect1_dropShadow_1817_26233"/><feBlend in="SourceGraphic" in2="effect1_dropShadow_1817_26233" mode="normal" result="shape"/></filter><filter id="c" color-interpolation-filters="sRGB" filterUnits="userSpaceOnUse" height="16.742" width="16.7418" x="76.9814" y="25.8974"><feFlood flood-opacity="0" result="BackgroundImageFix"/><feColorMatrix in="SourceAlpha" result="hardAlpha" type="matrix" values="0 0 0 0 0 0 0 0 0 0 0 0 0 0 0 0 0 0 127 0"/><feOffset dx="1.01913" dy="1.01913"/><feGaussianBlur stdDeviation="1.69855"/><feComposite in2="hardAlpha" operator="out"/><feColorMatrix type="matrix" values="0 0 0 0 0.443137 0 0 0 0 0.501961 0 0 0 0 0.588235 0 0 0 0.4 0"/><feBlend in2="BackgroundImageFix" mode="normal" result="effect1_dropShadow_1817_26233"/><feBlend in="SourceGraphic" in2="effect1_dropShadow_1817_26233" mode="normal" result="shape"/></filter><radialGradient id="d" cx="0" cy="0" gradientTransform="matrix(4.52505242 26.86233581 -26.86233581 4.52505242 84.2574 33.273)" gradientUnits="userSpaceOnUse" r="1"><stop offset="0" stop-color="#59f941"/><stop offset=".552083" stop-color="#59f941" stop-opacity="0"/></radialGradient><clipPath id="e"><path d="m93.4766 19.2676h42.6785v10.4801h-42.6785z"/></clipPath><path d="m336.07 102.241c-96.123 2.697-249.875-37.9402-284.0234-101.241" stroke="#a4afc1" stroke-linecap="round" stroke-width="1.69855"/><circle cx="84.2574" cy="33.273" fill="url(#d)" fill-opacity=".5" r="21.0621"/><path d="m16.4609 33.0892 1.6489.7361c10.3452 4.6184 22.2043 4.42 32.3892-.5419 9.6935-4.7225 20.9286-5.1404 30.9461-1.1511l2.4029.9569v120.9758h-67.3871z" fill="#a9deb8" fill-opacity=".4"/><path d="m84.1719 13.5137v140.5503" stroke="#a9deb8" stroke-linecap="round" stroke-linejoin="round" stroke-width="1.35884"/><path d="m215.094 13.5137v140.5503" stroke="#b6c0ce" stroke-linecap="round" stroke-linejoin="round" stroke-width="1.35884"/><path d="m281.516 13.5137v140.5503" stroke="#b6c0ce" stroke-linecap="round" stroke-linejoin="round" stroke-width="1.35884"/><g fill="#718096"><path d="m19.3064 168.1h-2.5193v-6.671h2.5286c1.1418 0 1.9137.666 1.9137 1.664 0 .694-.5084 1.341-1.151 1.456v.037c.906.116 1.4885.754 1.4885 1.641 0 1.175-.8413 1.873-2.2605 1.873zm-1.6872-5.936v2.14h1.2481c.9846 0 1.5208-.392 1.5208-1.114 0-.661-.453-1.026-1.2619-1.026zm0 5.201h1.5624c1.0031 0 1.5301-.407 1.5301-1.179s-.5454-1.165-1.6086-1.165h-1.4839zm7.1928-4.156c1.2249 0 2.057.98 2.057 2.487s-.8274 2.487-2.0386 2.487c-.6887 0-1.2434-.338-1.53-.865h-.0185v2.386h-.8044v-6.412h.7628v.814h.0185c.2958-.541.8551-.897 1.5532-.897zm-.1572 4.267c.8552 0 1.3914-.689 1.3914-1.78 0-1.086-.5362-1.78-1.3914-1.78-.8228 0-1.3775.712-1.3775 1.78 0 1.072.5547 1.78 1.3775 1.78zm5.0386-3.569c-.7535 0-1.2805.578-1.3313 1.377h2.6118c-.0185-.804-.5224-1.377-1.2805-1.377zm1.262 2.815h.7904c-.1386.841-.9522 1.461-2.0015 1.461-1.3776 0-2.2143-.957-2.2143-2.469 0-1.493.8506-2.505 2.1773-2.505 1.2989 0 2.0986.943 2.0986 2.399v.305h-3.4484v.046c0 .92.5408 1.526 1.4052 1.526.6102 0 1.0586-.31 1.1927-.763zm2.5378 1.378h-.7951v-4.808h.9754l1.7103 3.744h.037l1.7196-3.744h.9384v4.808h-.7997v-3.412h-.0324l-1.5532 3.273h-.6148l-1.5532-3.273h-.0323zm7.4423-2.372h.9199v-1.775h-.9199c-.624 0-1.0216.342-1.0216.92 0 .499.4022.855 1.0216.855zm.9199 2.372v-1.711h-.8505l-1.2204 1.711h-.9199l1.3406-1.859c-.6795-.194-1.091-.693-1.091-1.354 0-.989.7119-1.595 1.8167-1.595h1.7196v4.808z"/><path d="m9 151.154v2.52h-6.6704v-2.529c0-1.142.66566-1.914 1.66414-1.914.69338 0 1.34055.509 1.45611 1.152h.03698c.11557-.907.75348-1.489 1.64102-1.489 1.17414 0 1.87215.841 1.87215 2.26zm-5.9354 1.688h2.14025v-1.248c0-.985-.39292-1.521-1.11404-1.521-.66103 0-1.02621.453-1.02621 1.262zm5.20041 0v-1.563c0-1.003-.40679-1.53-1.17876-1.53s-1.16489.546-1.16489 1.609v1.484zm-3.4577-6.786c0 .753.57783 1.28 1.37753 1.331v-2.612c-.80433.019-1.37753.523-1.37753 1.281zm2.81516-1.262v-.791c.84131.139 1.46074.953 1.46074 2.002 0 1.377-.95688 2.214-2.46847 2.214-1.49309 0-2.50544-.85-2.50544-2.177 0-1.299.94301-2.099 2.39912-2.099h.3051v3.449h.04622c.9199 0 1.52546-.541 1.52546-1.406 0-.61-.30972-1.058-.76273-1.192zm-3.51317-4.082c0-1.225.97999-2.057 2.48695-2.057 1.50697 0 2.48696.827 2.48696 2.039 0 .688-.33745 1.243-.86443 1.53v.018h2.38522v.804h-6.41149v-.762h.81357v-.019c-.54084-.296-.89678-.855-.89678-1.553zm4.26665.157c0-.855-.68877-1.391-1.7797-1.391-1.0863 0-1.77969.536-1.77969 1.391 0 .823.71188 1.378 1.77969 1.378 1.07244 0 1.7797-.555 1.7797-1.378zm.70726-5.103c0 1.331-.95688 2.228-2.48696 2.228-1.5347 0-2.48695-.897-2.48695-2.228 0-1.327.95225-2.224 2.48695-2.224 1.53008 0 2.48696.897 2.48696 2.224zm-.70726 0c0-.851-.64716-1.405-1.7797-1.405-1.13253 0-1.77969.554-1.77969 1.405 0 .85.64716 1.41 1.77969 1.41 1.13254 0 1.7797-.56 1.7797-1.41zm-1.74734-4.798v-.92h-1.77507v.92c0 .624.34207 1.021.91989 1.021.49924 0 .85518-.402.85518-1.021zm2.37139-.92h-1.71036v.85l1.71036 1.221v.92l-1.85828-1.341c-.19415.68-.69339 1.091-1.35442 1.091-.98923 0-1.59479-.712-1.59479-1.817v-1.719h4.80749zm-4.80749-5.446h.66103v1.554h4.14646v.795h-4.14646v1.553h-.66103zm4.80749-3.91h-2.16337v2.371h2.16337v.795h-4.80749v-.795h1.98309v-2.371h-1.98309v-.795h4.80749zm.0832-3.925c.00001 1.331-.95687 2.228-2.48695 2.228-1.5347 0-2.48695-.897-2.48695-2.228 0-1.327.95225-2.223 2.48695-2.223 1.53008 0 2.48695.896 2.48695 2.223zm-.70725 0c0-.851-.64716-1.405-1.7797-1.405-1.13253 0-1.77969.554-1.77969 1.405s.64716 1.41 1.77969 1.41c1.13254 0 1.7797-.559 1.7797-1.41zm-2.70422-7.096v.795c-.46225.139-.85517.532-.85517 1.212 0 .836.70725 1.386 1.77969 1.386 1.10018 0 1.7797-.559 1.7797-1.396 0-.638-.31434-1.058-.84594-1.211v-.795c.91065.157 1.55319.929 1.55319 2.011 0 1.336-.95687 2.21-2.48695 2.21-1.49772 0-2.48695-.869-2.48695-2.201 0-1.16.74424-1.867 1.56243-2.011zm-1.47922-4.271h.66103v1.553h4.14646v.795h-4.14646v1.554h-.66103zm2.19573-2.436v.897h1.95073v-.897c0-.624-.3883-1.026-.97537-1.026-.59169 0-.97536.407-.97536 1.026zm2.61176 1.692h-4.80749v-.795h1.5347v-.911c0-1.1.63329-1.807 1.63639-1.807s1.6364.707 1.6364 1.807zm-3.32827-10.3131v.7951c-.46226.1386-.85518.5316-.85518 1.2111 0 .8367.70726 1.3868 1.7797 1.3868 1.10018 0 1.7797-.5594 1.7797-1.3961 0-.6379-.31434-1.0585-.84594-1.2111v-.7951c.91065.1572 1.55319.9292 1.55319 2.0109 0 1.3359-.95687 2.2096-2.48695 2.2096-1.49772 0-2.48695-.8691-2.48695-2.2004 0-1.1603.74424-1.8675 1.56243-2.0108zm3.32827-3.9662h-4.14646v2.3252h4.14646v.795h-4.80749v-3.9199h4.80749zm-.60094-3.5178c0-.7581-.5316-1.3405-1.22499-1.3405h-.39292l.07859 1.285c.0416.6472.3282 1.017.78122 1.017.45763 0 .7581-.3837.7581-.9615zm.68414.1803c0 .9569-.57782 1.5994-1.44224 1.5994-.82282 0-1.34055-.6333-1.40527-1.7427l-.07858-1.3775h-.40217c-.58707 0-.93839.3883-.93839 1.0539 0 .6194.29123 1.0077.76273 1.1094v.7766c-.83206-.0555-1.46998-.7673-1.46998-1.9045 0-1.1279.61018-1.8398 1.56706-1.8398h3.32364v.7628h-.82745v.0184c.55009.2866.91065.8968.91065 1.544zm-3.41147-7.4146v.795c-.46226.1387-.85518.5316-.85518 1.2112 0 .8367.70726 1.3867 1.7797 1.3867 1.10018 0 1.7797-.5593 1.7797-1.396 0-.6379-.31434-1.0586-.84594-1.2111v-.7951c.91065.1572 1.55319.9292 1.55319 2.0108 0 1.336-.95687 2.2096-2.48695 2.2096-1.49772 0-2.48695-.869-2.48695-2.2003 0-1.1603.74423-1.8675 1.56243-2.0108zm-.86442-2.7782c0 .7535.57782 1.2804 1.37753 1.3313v-2.6118c-.80433.0185-1.37753.5224-1.37753 1.2805zm2.81516-1.262v-.7904c.84131.1386 1.46073.9522 1.46073 2.0015 0 1.3776-.95687 2.2143-2.46846 2.2143-1.49309 0-2.50544-.8506-2.50544-2.1773 0-1.2989.94301-2.0986 2.39912-2.0986h.30509v3.4484h.04623c.91989 0 1.52545-.5408 1.52545-1.4053 0-.6101-.30971-1.0585-.76272-1.1926zm1.37753-4.9092h-2.16338l.00001 2.3714h2.16337v.7951h-4.8075v-.7951h1.98309v-2.3714h-1.98309v-.7951h4.8075zm0-2.7227v.7951h-4.8075v-.7951h3.57789v-.037l-3.57789-2.4037v-.7951h4.8075v.7951h-3.57789v.037zm-2.37139-6.0925v-.9199h-1.77508v.9199c0 .624.34208 1.0215.9199 1.0215.49924 0 .85518-.4021.85518-1.0215zm2.37139-.9199h-1.71036v.8505l1.71036 1.2204v.9199l-1.85828-1.3406c-.19415.6795-.69339 1.091-1.35442 1.091-.98924 0-1.5948-.7119-1.5948-1.8167v-1.7196h4.8075z"/><path d="m293.247 79.9492h-1.198v-4.7493h-2.528v4.7493h-1.207v-5.7445h4.933zm2.898.0916c-1.29 0-2.114-.8281-2.114-2.2294 0-1.3814.836-2.2214 2.114-2.2214s2.114.836 2.114 2.2214c0 1.4053-.824 2.2294-2.114 2.2294zm0-.8878c.569 0 .932-.4817.932-1.3376 0-.8479-.367-1.3376-.932-1.3376s-.936.4897-.936 1.3376c0 .8559.363 1.3376.936 1.3376zm3.925.7962h-1.138v-4.2676h1.138v2.6673h.032l1.696-2.6673h1.139v4.2676h-1.139v-2.6991h-.032zm7.544-2.8106h-1.087c-.095-.3702-.374-.6369-.816-.6369-.573 0-.927.4936-.927 1.3097 0 .8321.354 1.3177.931 1.3177.434 0 .721-.2348.82-.6369h1.083c-.103.9435-.832 1.5486-1.915 1.5486-1.282 0-2.09-.844-2.09-2.2294 0-1.3615.808-2.2214 2.082-2.2214 1.099 0 1.808.6529 1.919 1.5486zm2.882.5176 1.804 2.293h-1.405l-1.442-1.8312h-.031v1.8312h-1.159v-4.2676h1.159v1.7158h.031l1.418-1.7158h1.329zm4.081 2.3846c-1.29 0-2.114-.8281-2.114-2.2294 0-1.3814.836-2.2214 2.114-2.2214s2.114.836 2.114 2.2214c0 1.4053-.824 2.2294-2.114 2.2294zm0-.8878c.569 0 .932-.4817.932-1.3376 0-.8479-.367-1.3376-.932-1.3376s-.936.4897-.936 1.3376c0 .8559.363 1.3376.936 1.3376zm4.614-2.7349h-.689v.9913h.629c.426 0 .657-.1792.657-.5017 0-.3105-.215-.4896-.597-.4896zm0 1.664h-.689v1.1306h.741c.453 0 .704-.199.704-.5692 0-.3703-.262-.5614-.756-.5614zm-1.827 1.8671v-4.2676h2.137c.888 0 1.422.4021 1.422 1.0749 0 .4578-.335.8559-.773.9236v.0318c.57.0677.964.4658.964 1.0032 0 .7484-.605 1.2341-1.573 1.2341zm8.511 0v-4.2676h1.158v4.2676zm-2.261-2.1776h-.641v1.3098h.641c.422 0 .692-.2668.692-.6569s-.274-.6529-.692-.6529zm-1.8 2.1776v-4.2676h1.159v1.2341h.832c1.007 0 1.652.5892 1.652 1.5168 0 .9275-.645 1.5167-1.652 1.5167zm7.966-3.4993c-.509 0-.875.3862-.915.9196h1.811c-.024-.5454-.378-.9196-.896-.9196zm.912 2.1936h1.067c-.128.836-.892 1.3973-1.947 1.3973-1.314 0-2.102-.84-2.102-2.2055 0-1.3615.796-2.2453 2.058-2.2453 1.242 0 2.027.84 2.027 2.1378v.3543h-2.942v.0717c0 .6091.386 1.0271.979 1.0271.426 0 .752-.211.86-.5374zm-40.518 10.3973c-1.29 0-2.114-.8281-2.114-2.2294 0-1.3814.836-2.2214 2.114-2.2214 1.277 0 2.113.836 2.113 2.2214 0 1.4053-.824 2.2294-2.113 2.2294zm0-.8878c.569 0 .931-.4817.931-1.3376 0-.8479-.366-1.3376-.931-1.3376-.566 0-.936.4897-.936 1.3376 0 .8559.362 1.3376.936 1.3376zm6.126-3.4714v.8758h-1.27v3.3918h-1.158v-3.3918h-1.274v-.8758zm3.086-.0677c1.082 0 1.747.8241 1.747 2.2015 0 1.3735-.661 2.2015-1.728 2.2015-.621 0-1.098-.3026-1.325-.7843h-.024v2.11h-1.163v-5.661h1.147v.7444h.024c.231-.5016.704-.8121 1.322-.8121zm-.391 3.4675c.582 0 .948-.4897.948-1.266 0-.7723-.366-1.2699-.948-1.2699-.569 0-.943.5056-.943 1.2699 0 .7723.374 1.266.943 1.266zm4.575-1.3257h.696v-1.2102h-.696c-.411 0-.669.2428-.669.621 0 .3424.262.5892.669.5892zm.696 2.1935v-1.3774h-.466l-.947 1.3774h-1.29l1.123-1.5526c-.581-.1831-.94-.621-.94-1.2341 0-.9076.673-1.4809 1.708-1.4809h1.947v4.2676zm4.829-.8798v-2.516h-1.278l-.095 1.3496c-.032.4538-.12.8479-.311 1.1346v.0318zm-2.138 1.9865h-1.055v-1.9865h.327c.31-.1751.43-.6648.47-1.242l.139-2.1458h3.416v3.3878h.633v1.9865h-1.059v-1.1067h-2.871zm8.512-1.1067v-4.2676h1.158v4.2676zm-2.262-2.1776h-.64v1.3098h.64c.422 0 .693-.2668.693-.6569s-.275-.6529-.693-.6529zm-1.799 2.1776v-4.2676h1.159v1.2341h.832c1.007 0 1.652.5892 1.652 1.5168 0 .9275-.645 1.5167-1.652 1.5167z"/><path d="m229.077 77.1621h-1.071v-3.8775h-.032l-1.56 3.8218h-.757l-1.56-3.8218h-.032v3.8775h-1.071v-5.7445h1.393l1.633 4.0725h.031l1.633-4.0725h1.393zm3.579 0h-2.544v-5.7445h2.5c1.079 0 1.756.5533 1.756 1.4331 0 .629-.47 1.1545-1.079 1.2461v.0318c.78.0597 1.353.629 1.353 1.3894 0 1.0111-.76 1.6441-1.986 1.6441zm-1.342-4.8488v1.4928h.864c.641 0 1.007-.2826 1.007-.7683 0-.4618-.322-.7245-.883-.7245zm0 3.9531h1.035c.693 0 1.067-.2946 1.067-.844 0-.5374-.386-.824-1.094-.824h-1.008zm5.725-1.5128c-.044.641-.127 1.0828-.382 1.3814v.0319h2.345v-3.7621h-1.812zm-.983 2.4085v1.1346h-1.091v-2.1298h.402c.402-.2747.518-.7246.565-1.5048l.199-3.2445h4.073v4.7493h.716v2.1298h-1.086v-1.1346z"/></g><path d="m16.4609 13.5137v140.5503h335.4911" stroke="#9aa7ba" stroke-linecap="round" stroke-linejoin="round" stroke-width="1.35884"/><path d="m16.1647 9.53105c.1308-.22647.4577-.22647.5884 0l2.1906 3.79425c.1308.2265-.0327.5095-.2942.5095h-4.3812c-.2615 0-.4249-.283-.2942-.5095z" fill="#9aa7ba"/><path d="m354.49 153.77c.227.131.227.458 0 .589l-3.794 2.19c-.226.131-.509-.033-.509-.294v-4.381c0-.262.283-.425.509-.294z" fill="#9aa7ba"/><g filter="url(#a)"><circle cx="215.263" cy="88.7629" fill="#b6c0ce" r="4.97381"/><circle cx="215.263" cy="88.7629" r="4.29439" stroke="#fff" stroke-width="1.35884"/></g><g filter="url(#b)"><circle cx="281.677" cy="98.7121" fill="#b6c0ce" r="4.97381"/><circle cx="281.677" cy="98.7121" r="4.29439" stroke="#fff" stroke-width="1.35884"/></g><rect fill="#fff" height="20.4617" rx="10.2309" stroke="#a9deb8" stroke-width="1.35884" transform="matrix(1 0 0 -1 54.6484 163.616)" width="58.006" x=".679421" y="-.679421"/><path d="m71.7788 156.893v-4.255h-.0219l-1.3429.926v-.992l1.3612-.945h1.0947v5.266zm4.9212-1.675h-2.3976v-.931h2.3976zm3.0235 1.791c-1.1312 0-1.945-.671-1.9779-1.624h1.0182c.062.446.4561.752.967.752.5766 0 .9744-.401.9744-.974 0-.584-.3978-.993-.9671-.993-.3977 0-.7408.183-.9232.486h-.9853l.2591-3.029h3.35v.876h-2.4852l-.1204 1.441h.0219c.2153-.354.635-.577 1.1714-.577 1.0072 0 1.7297.741 1.7297 1.767 0 1.116-.8247 1.875-2.0326 1.875zm5.4779-.116h-.9999v-3.912h1.3794l1.0218 2.554h.0255l1.0218-2.554h1.3648v3.912h-.9999v-2.617h-.0255l-1.0145 2.398h-.7372l-1.0108-2.398h-.0255zm5.7969 0h-1.0437v-3.912h1.0437v2.445h.0292l1.5546-2.445h1.0437v3.912h-1.0437v-2.475h-.0292zm6.1291 0v-1.602h-1.5035v1.602h-1.0619v-3.912h1.0619v1.503h1.5035v-1.503h1.0619v3.912z" fill="#139300"/><rect fill="#fff" height="20.4617" rx="10.2309" stroke="#b6c0ce" stroke-width="1.35884" transform="matrix(1 0 0 -1 185.57 163.616)" width="58.006" x=".679421" y="-.679421"/><path d="m201.568 156.893v-4.255h-.021l-1.343.926v-.992l1.361-.945h1.095v5.266zm4.922-1.675h-2.398v-.931h2.398zm.936-2.007c0-.997.795-1.701 1.945-1.701 1.109 0 1.872.642 1.872 1.522 0 .657-.438 1.149-1.018 1.726l-1.285 1.237v.022h2.376v.876h-3.828v-.741l1.985-1.912c.533-.533.697-.8.697-1.165 0-.394-.347-.707-.836-.707-.511 0-.886.357-.886.843v.018h-1.022zm9.871 3.682h-1.062v-1.628h-.04c-.215.234-.554.39-1.003.39-.894 0-1.434-.558-1.434-1.445v-1.229h1.061v1.076c0 .449.252.715.683.715.357 0 .602-.138.733-.31v-1.481h1.062zm2.447-.708c.464 0 .847-.303.847-.727v-.284l-.825.051c-.398.029-.624.208-.624.485 0 .292.241.475.602.475zm-.35.77c-.745 0-1.31-.482-1.31-1.186 0-.712.547-1.124 1.522-1.183l.985-.058v-.259c0-.365-.256-.577-.657-.577-.398 0-.65.197-.701.486h-.974c.04-.759.686-1.281 1.722-1.281 1.004 0 1.657.518 1.657 1.306v2.69h-1.029v-.599h-.022c-.219.416-.704.661-1.193.661zm6.691-2.639h-.996c-.088-.339-.343-.584-.748-.584-.526 0-.851.453-.851 1.201 0 .763.325 1.208.854 1.208.398 0 .661-.215.752-.584h.993c-.095.865-.763 1.42-1.756 1.42-1.175 0-1.916-.774-1.916-2.044 0-1.248.741-2.036 1.909-2.036 1.007 0 1.657.598 1.759 1.419zm2.275 1.869c.464 0 .847-.303.847-.727v-.284l-.825.051c-.397.029-.624.208-.624.485 0 .292.241.475.602.475zm-.35.77c-.744 0-1.31-.482-1.31-1.186 0-.712.547-1.124 1.522-1.183l.985-.058v-.259c0-.365-.255-.577-.657-.577-.398 0-.649.197-.7.486h-.975c.04-.759.686-1.281 1.723-1.281 1.003 0 1.656.518 1.656 1.306v2.69h-1.029v-.599h-.022c-.219.416-.704.661-1.193.661z" fill="#718096"/><rect fill="#fff" height="20.4617" rx="10.2309" stroke="#b6c0ce" stroke-width="1.35884" transform="matrix(1 0 0 -1 252 163.616)" width="58.006" x=".679421" y="-.679421"/><path d="m266.264 156.893v-.938h-2.62v-.938c.459-.876 1.032-1.799 2.112-3.39h1.555v3.445h.686v.883h-.686v.938zm-1.653-1.818v.029h1.675v-2.696h-.022c-.767 1.124-1.226 1.843-1.653 2.667zm6.636.143h-2.398v-.931h2.398zm3.023 1.791c-1.131 0-1.945-.671-1.977-1.624h1.018c.062.446.456.752.967.752.576 0 .974-.401.974-.974 0-.584-.398-.993-.967-.993-.398 0-.741.183-.923.486h-.985l.259-3.029h3.35v.876h-2.486l-.12 1.441h.022c.215-.354.635-.577 1.171-.577 1.008 0 1.73.741 1.73 1.767 0 1.116-.825 1.875-2.033 1.875zm7.945-.116h-1.062v-1.628h-.04c-.215.234-.555.39-1.003.39-.894 0-1.435-.558-1.435-1.445v-1.229h1.062v1.076c0 .449.252.715.683.715.357 0 .602-.138.733-.31v-1.481h1.062zm2.447-.708c.464 0 .847-.303.847-.727v-.284l-.825.051c-.398.029-.624.208-.624.485 0 .292.241.475.602.475zm-.35.77c-.745 0-1.31-.482-1.31-1.186 0-.712.547-1.124 1.522-1.183l.985-.058v-.259c0-.365-.256-.577-.657-.577-.398 0-.65.197-.701.486h-.974c.04-.759.686-1.281 1.722-1.281 1.004 0 1.657.518 1.657 1.306v2.69h-1.029v-.599h-.022c-.219.416-.704.661-1.193.661zm6.691-2.639h-.996c-.088-.339-.343-.584-.748-.584-.526 0-.851.453-.851 1.201 0 .763.325 1.208.854 1.208.398 0 .661-.215.752-.584h.993c-.095.865-.763 1.42-1.756 1.42-1.175 0-1.916-.774-1.916-2.044 0-1.248.741-2.036 1.909-2.036 1.007 0 1.657.598 1.759 1.419zm2.56 2.661c-1.182 0-1.938-.76-1.938-2.044 0-1.266.767-2.036 1.938-2.036s1.938.766 1.938 2.036c0 1.288-.756 2.044-1.938 2.044zm0-.814c.522 0 .854-.442.854-1.226 0-.778-.336-1.227-.854-1.227s-.858.449-.858 1.227c0 .784.333 1.226.858 1.226zm4.399-2.507h-.631v.908h.577c.39 0 .602-.164.602-.459 0-.285-.197-.449-.548-.449zm0 1.525h-.631v1.036h.679c.416 0 .646-.182.646-.521 0-.34-.241-.515-.694-.515zm-1.675 1.712v-3.912h1.96c.814 0 1.303.368 1.303.985 0 .42-.307.784-.708.847v.029c.522.062.883.427.883.919 0 .686-.555 1.132-1.442 1.132z" fill="#718096"/><g filter="url(#c)"><circle cx="84.3332" cy="33.2492" fill="#4cb648" r="4.97381"/><circle cx="84.3332" cy="33.2492" r="4.29439" stroke="#fff" stroke-width="1.35884"/></g><g clip-path="url(#e)"><path d="m97.2095 23.0529c.1101-.1395.1939-.2991.247-.4707.0506-.1619.08-.3301.0877-.5001.0074-.1637.0111-.3235.0111-.477-.0002-.3043-.04-.6072-.1185-.9004-.0699-.2738-.1963-.5287-.3706-.747-.1674-.2128-.3783-.3845-.6175-.5026-.285-.1316-.5947-.1954-.9066-.1868-.2713-.0051-.5398.0572-.7831.1817-.2224.1197-.4257.2741-.6027.4578-.2051.2227-.3584.4908-.4484.7841-.0894.2615-.1381.5361-.1445.8134v.353h1.2697v-.2481c.0006-.1423.0151-.2841.0433-.4234.0215-.1219.0683-.2375.1371-.3389.0569-.0795.1298-.1454.2136-.1931.1011-.0536.2139-.0791.3273-.0742.125-.0053.249.0238.3595.0844.0888.0532.1652.1262.2235.2136.0585.1037.0979.2178.1161.3364.0219.1335.0326.2687.0321.4041 0 .1279 0 .284-.016.4528-.0065.1454-.0409.2881-.1013.4195-.0522.1116-.1392.2018-.247.2558-.1129.0528-.2356.079-.3594.0768h-.5299v1.1766h.494c.1241-.0113.2488.0137.3597.0723.111.0586.2038.1483.2678.259.0638.1326.0996.2778.105.4259.0148.1893.0222.3939.0222.6088.0144.3027-.0433.6045-.168.8787-.1062.2021-.3125.3018-.6311.3018-.1196.0048-.2384-.0211-.3459-.0754-.0855-.0466-.1598-.1127-.2173-.1932-.0575-.0795-.0994-.1699-.1236-.266-.0249-.1007-.0373-.2043-.037-.3082l-.0136-.3837h-1.2598v.3837c.002.2906.0487.579.1383.8543.0805.268.221.5126.4101.7137.1825.1897.4007.3386.641.4374.2549.1052.5272.1582.8016.1561.3305.0098.6587-.0603.9585-.2047.2457-.1242.4649-.2982.6447-.5116.1809-.2283.3078-.4972.3705-.7853.0746-.3268.1111-.6617.1087-.9976 0-.2059 0-.4131-.0111-.6165-.006-.1914-.035-.3813-.0865-.5653-.0511-.1743-.1351-.3364-.247-.4771-.1075-.1334-.242-.2408-.394-.3146.1473-.0903.2792-.2053.3903-.3402z" fill="#4cb648"/><g fill="#48575e"><path d="m106.797 20.5843h1.333v7.2072h1.269v-7.2072h1.334v-1.2445h-3.936z"/><path d="m113.718 23.1206-1.046-3.7808h-1.344l1.759 5.7555-.095.4323c-.042.1958-.107.3856-.193.5654-.049.1033-.112.1989-.188.2839-.078.0749-.178.1224-.284.1356-.116.0215-.234.033-.352.0345h-.137v1.3135h.216c.225.0014.449-.0161.671-.0524.221-.0432.428-.1464.598-.2993.232-.1963.413-.4501.526-.738.132-.3341.246-.6757.341-1.0232l1.69-6.4078h-1.344z"/><path d="m116.539 27.7915h1.269v-7.2775h1.249v7.2775h1.27v-8.4517h-3.788z"/><path d="m124.021 22.9082h-1.306v-3.5684h-1.27v8.4517h1.27v-3.7091h1.306v3.7091h1.269v-8.4517h-1.269z"/><path d="m127.824 24.4699v-5.1301h-1.269v8.4517h1.256l1.433-5.1199v5.1199h1.269v-8.4517h-1.255z"/><path d="m136.159 19.332-1.518.0077-1.653 3.5684v-3.5684h-1.269v8.4516h1.269v-3.7091h.541l1.017 3.7091h1.298l-1.412-4.9855z"/><path d="m106.206 21.8473v-.532c.002-.2817-.048-.5612-.146-.8237-.092-.2433-.228-.466-.402-.6561-.176-.1881-.389-.3357-.625-.4333-.235-.0976-.487-.143-.741-.1333-.268-.003-.534.0483-.784.1509-.231.0947-.441.2365-.617.4169-.17.1797-.303.3934-.391.628-.095.2495-.143.5157-.141.784v.5052l1.339 6.0241c.202.0525.41.08.618.0819.255.0015.508-.0539.741-.1624.225-.1065.429-.2563.6-.4413.17-.1839.306-.398.402-.6318.097-.2389.146-.4955.145-.7546v-.5756h-1.269v.4694c.003.131-.018.2614-.063.3837-.033.0886-.084.1692-.149.2366-.066.0569-.141.1003-.223.1279-.073.0243-.149.0372-.226.0384-.247 0-.408-.0716-.494-.2187-.101-.1735-.15-.3734-.143-.5756v-4.2616c-.009-.2306.038-.4597.134-.6676.084-.1637.247-.243.519-.243.091-.0039.182.0154.265.0562.082.0408.154.1018.208.1778.121.1635.185.3646.18.5705v.4591z"/></g><path d="m102.5 26.7005-.131-.5884-1.493-6.7723h-1.0139l-1.823 8.4517h1.2746l.3384-1.7906h1.4749l.818 3.7487h1.227zm-2.6218-1.9441.5048-2.7.512 2.7z" fill="#4cb648"/></g></svg>